<svg xmlns="http://www.w3.org/2000/svg" viewBox="0 0 108 108">
  <defs>
    <clipPath id="icon-shape">
      <rect width="108" height="108" rx="24" />
    </clipPath>
  </defs>
  <g clip-path="url(#icon-shape)">
    <path fill="#24142E" d="M0 0h108v108H0z" />
    <path fill="#3B2150" d="M0 78c27-20 61 18 108-22v52H0z" />
    <path
      fill="none"
      stroke="#FFFFFF"
      stroke-linecap="round"
      stroke-linejoin="round"
      stroke-width="5"
      d="M31 37v-8h12m22 0h12v12m0 26v12H65m-22 0H31V67"
    />
    <path
      fill="#D7B9FF"
      d="M40 40h29v6L49 62h20v7H39v-6l20-16H40z"
    />
    <path
      fill="#FFFFFF"
      d="M26 48h5v5h-5zm0 9h5v5h-5zm51-9h5v5h-5zm0 9h5v5h-5z"
    />
  </g>
</svg>
